<?xml version="1.0" encoding="utf-8"?>
<!-- Generator: Adobe Illustrator 27.5.0, SVG Export Plug-In . SVG Version: 6.00 Build 0)  -->
<svg version="1.1" id="Layer_1" xmlns="http://www.w3.org/2000/svg" xmlns:xlink="http://www.w3.org/1999/xlink" x="0px" y="0px"
	viewBox="0 0 2599 1733" style="enable-background:new 0 0 2599 1733;" xml:space="preserve">
<g>
	<g>
		<defs>
			<rect id="SVGID_1_" width="2598.076" height="1732.051"/>
		</defs>
		
			<linearGradient id="SVGID_00000072965863509226094370000000169824338148664733_" gradientUnits="userSpaceOnUse" x1="1299.0381" y1="1716.0138" x2="1299.0381" y2="535.9208">
			<stop  offset="0" style="stop-color:#4D4D4D"/>
			<stop  offset="0.1792" style="stop-color:#7F7F7F"/>
			<stop  offset="0.3701" style="stop-color:#ACACAC"/>
			<stop  offset="0.5533" style="stop-color:#D0D0D0"/>
			<stop  offset="0.7241" style="stop-color:#EAEAEA"/>
			<stop  offset="0.8779" style="stop-color:#FAFAFA"/>
			<stop  offset="1" style="stop-color:#FFFFFF"/>
		</linearGradient>
		<use xlink:href="#SVGID_1_"  style="overflow:visible;fill:url(#SVGID_00000072965863509226094370000000169824338148664733_);"/>
		<clipPath id="SVGID_00000157274031718900418140000015988328811408500410_">
			<use xlink:href="#SVGID_1_"  style="overflow:visible;"/>
		</clipPath>
		<g style="clip-path:url(#SVGID_00000157274031718900418140000015988328811408500410_);">
			<path style="fill:#4D4D4D;" d="M970.758,1666.289c3.209,0,3.209,4.85,0,4.85C967.551,1671.139,967.551,1666.289,970.758,1666.289z"/>
			<path style="fill:#4D4D4D;" d="M1162.473,558.558c1.834,0,1.834,2.771,0,2.771C1160.64,561.329,1160.64,558.558,1162.473,558.558z"/>
			<path style="fill:#4D4D4D;" d="M2559.57,1023.753c2.634,0,2.634,3.981,0,3.981C2556.936,1027.735,2556.936,1023.753,2559.57,1023.753z"/>
			<path style="fill:#4D4D4D;" d="M1496.87,973.286c2.545,0,2.545,3.847,0,3.847C1494.324,977.133,1494.324,973.286,1496.87,973.286z"/>
			<path style="fill:#4D4D4D;" d="M2199.82,1655.101c3.208,0,3.208,4.85,0,4.85C2196.612,1659.951,2196.612,1655.101,2199.82,1655.101z"/>
			<path style="fill:#4D4D4D;" d="M2234.522,1541.806c3.208,0,3.208,4.85,0,4.85C2231.314,1546.656,2231.314,1541.806,2234.522,1541.806z"/>
			<path style="fill:#4D4D4D;" d="M2378.029,1056.479c2.715,0,2.715,4.104,0,4.104C2375.314,1060.582,2375.314,1056.479,2378.029,1056.479z"/>
			<path style="fill:#4D4D4D;" d="M2574.561,1556.341c3.208,0,3.208,4.85,0,4.85C2571.353,1561.191,2571.353,1556.341,2574.561,1556.341z"/>
			<path style="fill:#4D4D4D;" d="M461.848,137.791c1.34,0,1.34,2.025,0,2.025C460.508,139.816,460.508,137.791,461.848,137.791z"/>
			<path style="fill:#4D4D4D;" d="M2290.431,1436.815c3.208,0,3.208,4.85,0,4.85C2287.224,1441.665,2287.224,1436.815,2290.431,1436.815z"/>
			<path style="fill:#4D4D4D;" d="M2251.032,1407.056c3.208,0,3.208,4.85,0,4.85C2247.824,1411.905,2247.824,1407.056,2251.032,1407.056z"/>
			<path style="fill:#4D4D4D;" d="M2233.368,972.661c2.545,0,2.545,3.847,0,3.847S2230.823,972.661,2233.368,972.661z"/>
			<path style="fill:#4D4D4D;" d="M315.876,1553.324c3.208,0,3.208,4.85,0,4.85C312.668,1558.174,312.668,1553.324,315.876,1553.324z"/>
			<path style="fill:#4D4D4D;" d="M581.452,1572.902c3.208,0,3.208,4.85,0,4.85C578.243,1577.752,578.243,1572.902,581.452,1572.902z"/>
			<path style="fill:#4D4D4D;" d="M1330.524,1308.72c3.208,0,3.208,4.85,0,4.85C1327.316,1313.57,1327.316,1308.72,1330.524,1308.72z"/>
			<path style="fill:#4D4D4D;" d="M1717.024,455.576c1.688,0,1.688,2.551,0,2.551C1715.336,458.127,1715.336,455.576,1717.024,455.576z"/>
			<path style="fill:#4D4D4D;" d="M2449.511,1578.124c3.208,0,3.208,4.85,0,4.85C2446.303,1582.974,2446.303,1578.124,2449.511,1578.124z"/>
			<path style="fill:#4D4D4D;" d="M459.924,798.026c2.222,0,2.222,3.358,0,3.358C457.702,801.384,457.702,798.026,459.924,798.026z"/>
			<path style="fill:#4D4D4D;" d="M553.001,1148.545c2.901,0,2.901,4.385,0,4.385C550.1,1152.931,550.1,1148.545,553.001,1148.545z"/>
			<path style="fill:#4D4D4D;" d="M2301.886,1001.389c2.61,0,2.61,3.945,0,3.945C2299.276,1005.334,2299.276,1001.389,2301.886,1001.389z"/>
			<path style="fill:#4D4D4D;" d="M340.872,1641.102c3.208,0,3.208,4.85,0,4.85C337.663,1645.952,337.663,1641.102,340.872,1641.102z"/>
			<path style="fill:#4D4D4D;" d="M1255.752,1541.981c3.208,0,3.208,4.85,0,4.85C1252.543,1546.831,1252.543,1541.981,1255.752,1541.981z"/>
			<path style="fill:#4D4D4D;" d="M788.772,1685.13c3.208,0,3.208,4.85,0,4.85C785.564,1689.979,785.564,1685.13,788.772,1685.13z"/>
			<path style="fill:#4D4D4D;" d="M2340.521,1445.525c3.208,0,3.208,4.85,0,4.85C2337.313,1450.375,2337.313,1445.525,2340.521,1445.525z"/>
			<path style="fill:#4D4D4D;" d="M2436.714,1330.164c3.208,0,3.208,4.85,0,4.85C2433.506,1335.014,2433.506,1330.164,2436.714,1330.164z"/>
		</g>
	</g>
</g>
</svg>
